<svg xmlns="http://www.w3.org/2000/svg" viewBox="0 0 403.23 488.69">
  <title>rubens_lines</title>
  <g id="hat">
    <path d="M149.62,247.84c-4,.15-7.89,1.57-12.11,2.52a85.47,85.47,0,0,1-12.76,1.55,125.71,125.71,0,0,1-25.49-1.38,98.48,98.48,0,0,1-24.62-7,61.2,61.2,0,0,1-11.23-6.44,40.6,40.6,0,0,1-9.24-9.26A30.74,30.74,0,0,1,49,215.66a33.29,33.29,0,0,1-.55-6.58c0-2.12,0-4.25.16-6.38a123.82,123.82,0,0,1,3.57-25.29,93,93,0,0,1,9.5-23.79,87,87,0,0,1,15.91-20.1,107.71,107.71,0,0,1,20.66-15.09,167.64,167.64,0,0,1,23.12-10.74c15.85-6.08,32.26-10.26,48.36-15a184.29,184.29,0,0,0,23.59-8.37A135,135,0,0,0,215,72a150.93,150.93,0,0,0,19.12-16.07c6-5.85,11.54-12.12,17.25-18.34S263,25.21,269.73,19.9A72.8,72.8,0,0,1,292.32,7.64a91.57,91.57,0,0,1,50.77-1,122.2,122.2,0,0,1,24,8.93,114.33,114.33,0,0,1,21.53,13.82A99,99,0,0,1,406.19,48a92.25,92.25,0,0,1,12,22.67,100.94,100.94,0,0,1,5.57,25,114,114,0,0,1,.51,12.83,53.59,53.59,0,0,1-2,12.85,82.67,82.67,0,0,1-11.06,23.19,146.21,146.21,0,0,1-16.09,19.82,248.66,248.66,0,0,1-39,32.52q-10.49,7.17-21.56,13.43a204.89,204.89,0,0,1-22.83,11.26l-1.3-3.1A271.37,271.37,0,0,0,354.08,194a246,246,0,0,0,38.52-32,142.63,142.63,0,0,0,15.73-19.34A79.49,79.49,0,0,0,419,120.41a50.32,50.32,0,0,0,1.92-12A109.67,109.67,0,0,0,420.4,96,97.52,97.52,0,0,0,415,71.79a89.26,89.26,0,0,0-11.56-21.86,96,96,0,0,0-17-18,116.23,116.23,0,0,0-44.2-22.13,86.09,86.09,0,0,0-24.54-3,85.05,85.05,0,0,0-24.39,3.93,69.56,69.56,0,0,0-21.58,11.71c-6.51,5.11-12.3,11.16-18,17.34S242.47,52.33,236.4,58.27a153.34,153.34,0,0,1-19.53,16.4,137.09,137.09,0,0,1-22.21,12.6,187.21,187.21,0,0,1-24,8.51c-16.2,4.77-32.5,8.92-48.14,14.91a163.12,163.12,0,0,0-22.67,10.52,104.81,104.81,0,0,0-20.06,14.63,84,84,0,0,0-15.34,19.37,90.26,90.26,0,0,0-9.19,23,120.25,120.25,0,0,0-3.48,24.66c-.13,2.07-.12,4.16-.16,6.24a29.79,29.79,0,0,0,.49,6A27.6,27.6,0,0,0,56.75,226a37.33,37.33,0,0,0,8.53,8.53,58,58,0,0,0,10.64,6.11,97.34,97.34,0,0,0,23.82,6.89A122.58,122.58,0,0,0,124.61,249a82.07,82.07,0,0,0,12.31-1.36c4-.85,8.09-2.33,12.62-2.48Z" transform="translate(-48.46 -3.48)" fill="#1c1c1c"/>
    <path d="M117.19,210.51a12.86,12.86,0,0,1-5-2.1,11.81,11.81,0,0,1-3.56-4.11,21.67,21.67,0,0,1-2.19-10.11,70.34,70.34,0,0,1,2.76-19.71c3.71-12.86,11.35-24.28,20.67-33.63A121.34,121.34,0,0,1,145,128a162.82,162.82,0,0,1,16.65-10.62,243.71,243.71,0,0,1,35.9-16.15,356.29,356.29,0,0,1,37.68-11.18q19.11-4.58,38.6-7.31A344.18,344.18,0,0,1,313,79.36c1.64,0,3.28-.06,4.93-.07.84,0,1.71.06,2.57.1s1.71.15,2.56.32a36.79,36.79,0,0,1,9.71,3.08c6.09,2.89,11.46,6.69,17,10.09l-1.45,2.38c-5.65-3.33-11.07-7-16.84-9.59a34.29,34.29,0,0,0-8.9-2.73c-.76-.15-1.53-.17-2.3-.27s-1.53-.06-2.32-.07c-1.62,0-3.23,0-4.85.07A341.17,341.17,0,0,0,274.25,86Q254.95,88.74,236,93.26a350.61,350.61,0,0,0-37.33,11.07,242.12,242.12,0,0,0-35.43,15.9,159.6,159.6,0,0,0-16.37,10.36,119.37,119.37,0,0,0-14.73,12.46A87.17,87.17,0,0,0,120,158a73.7,73.7,0,0,0-4.63,8.39c-.64,1.47-1.32,2.91-1.85,4.42s-1.07,3-1.56,4.52a67.81,67.81,0,0,0-2.81,18.89,19.25,19.25,0,0,0,1.79,8.86,9.26,9.26,0,0,0,2.76,3.25,10.32,10.32,0,0,0,4,1.69Z" transform="translate(-48.46 -3.48)" fill="#1c1c1c"/>
    <path d="M144.74,102.36a34.81,34.81,0,0,1,3.8-14.85,48.81,48.81,0,0,1,9-12.31,86.48,86.48,0,0,1,24.84-17A113.09,113.09,0,0,1,211,49a89.49,89.49,0,0,1,15.08-1.37,59.38,59.38,0,0,1,15.19,1.81l-.92,3.31a55.94,55.94,0,0,0-14.28-1.86,85.67,85.67,0,0,0-14.55,1.17,106.93,106.93,0,0,0-28,8.67,84,84,0,0,0-24.11,16.36,47.94,47.94,0,0,0-8.58,11.58,32,32,0,0,0-3.69,13.7Z" transform="translate(-48.46 -3.48)" fill="#1c1c1c"/>
  </g>
  <g id="robes">
    <path d="M337.62,326.77a4.39,4.39,0,0,1,2.45-.78c.72,0,1.36.06,2,.09a10.24,10.24,0,0,1,2,.29c.34.07.68.11,1,.21l1,.35a10.52,10.52,0,0,1,1,.39l.93.5a11.94,11.94,0,0,1,1.73,1.17,30.18,30.18,0,0,1,2.91,2.69,23,23,0,0,0,5.55,4.52,20.94,20.94,0,0,0,6.71,2.15,46.4,46.4,0,0,0,7.3.46c2.48,0,5-.22,7.5-.41s5.1-.36,7.67-.4,5.09,0,7.64,0,5,0,7.5-.16c1.26-.07,2.56-.18,3.91-.14l2.06.13c.68.08,1.33.22,2,.32a17.11,17.11,0,0,1,1.94.43l1.91.5c1.24.42,2.51.76,3.71,1.24s2.42.91,3.6,1.43,2.37,1,3.53,1.56c4.66,2.17,9.17,4.59,13.58,7.17s8.73,5.33,12.9,8.35l-2,2.77a172.79,172.79,0,0,0-25.84-15.32q-1.69-.81-3.42-1.53c-1.14-.51-2.3-.94-3.45-1.38s-2.34-.79-3.5-1.19l-1.77-.47a14.28,14.28,0,0,0-1.76-.39c-.59-.1-1.18-.23-1.77-.3l-1.73-.12c-1.18,0-2.41.06-3.68.12-2.56.16-5.18.19-7.69.14s-5.1-.08-7.58,0-5,.19-7.51.37-5.09.36-7.67.4a52.17,52.17,0,0,1-7.86-.53,22.65,22.65,0,0,1-7.63-2.64,26.21,26.21,0,0,1-6.07-5.18,15.33,15.33,0,0,0-5.5-4.27l-.79-.31c-.28-.09-.57-.13-.85-.2a8.7,8.7,0,0,0-1.72-.28l-1.75-.13a2.1,2.1,0,0,0-1.14.29Z" transform="translate(-48.46 -3.48)" fill="#1c1c1c"/>
    <path d="M173.42,372.41a45.78,45.78,0,0,1-5.29,9.87,39.62,39.62,0,0,1-7.78,8.11c-5.93,4.65-12.89,7.51-19.71,10s-13.71,4.73-19.73,8.34a32.8,32.8,0,0,0-8,6.57,31.16,31.16,0,0,0-5.31,8.85l-2.27-1.54a14.29,14.29,0,0,1,2.86-2.06,21.68,21.68,0,0,1,3.23-1.41l.81,2.17a11.85,11.85,0,0,0-2.68,1.43,27.56,27.56,0,0,0-2.32,1.95l-4.31,3.92,2-5.46a32.32,32.32,0,0,1,5.66-9.81,34.62,34.62,0,0,1,8.72-7.21c6.46-3.84,13.52-6,20.27-8.53s13.4-5.21,18.95-9.52a36.81,36.81,0,0,0,7.3-7.45,43.23,43.23,0,0,0,5-9.2Z" transform="translate(-48.46 -3.48)" fill="#1c1c1c"/>
    <path d="M245.13,399.12a90.31,90.31,0,0,1-9.84,23.27c-2.21,3.6-4.62,7.06-7.06,10.44a78.47,78.47,0,0,0-6.67,10.33c-.4.92-.86,1.82-1.2,2.75s-.67,1.87-.86,2.84l-.28,1.46a7.91,7.91,0,0,0-.21,1.46c0,1-.15,2-.14,3a45.07,45.07,0,0,0,.56,6.06c.3,2.05.61,4.17.77,6.29A60.88,60.88,0,0,1,217,492.17l-2.34-.82a56,56,0,0,0,2.71-11.91,65.86,65.86,0,0,0,.2-12.24c-.15-2-.44-4.05-.74-6.13a44.78,44.78,0,0,1-.57-6.4c0-1.08.12-2.18.17-3.27a10,10,0,0,1,.24-1.63l.33-1.62c.22-1.07.64-2.09,1-3.13s.88-2,1.31-3a81.45,81.45,0,0,1,6.94-10.64c2.45-3.37,4.83-6.75,7-10.25a91,91,0,0,0,9.86-22.58Z" transform="translate(-48.46 -3.48)" fill="#1c1c1c"/>
    <path d="M124.92,410.52c-.22,2.09-.3,4.22-.32,6.36,0,1.1,0,2.09,0,3.29s-.15,2.23-.27,3.33a97.48,97.48,0,0,1-2.25,13,54.6,54.6,0,0,1-2,6.38,48.38,48.38,0,0,1-2.84,6.05c-1.06,1.94-2.19,3.8-3.29,5.66s-2.12,3.72-3.38,5.48l-2.12-1.12a37,37,0,0,1,3-5.85c1.11-1.87,2.24-3.71,3.26-5.57a46.22,46.22,0,0,0,2.69-5.7,53.42,53.42,0,0,0,1.89-6,98.66,98.66,0,0,0,2.21-12.59c.11-1.06.22-2.13.27-3.16s0-2.13,0-3.2c0-2.19.14-4.4.4-6.62Z" transform="translate(-48.46 -3.48)" fill="#1c1c1c"/>
  </g>
  <g id="collar">
    <path d="M245.79,378.8a150.12,150.12,0,0,1,16.28-25.63c6.21-8,13-15.52,19.76-22.93s13.65-14.75,19.47-22.79a68.73,68.73,0,0,0,7.42-12.7,39.38,39.38,0,0,0,2.26-6.89c.13-.59.28-1.17.38-1.76l.26-1.79c.24-1.18.25-2.38.42-3.58l2.81,0a28.38,28.38,0,0,1-.83,7.79,43.22,43.22,0,0,1-2.46,7.41,71.35,71.35,0,0,1-7.8,13.26c-6,8.25-13,15.58-19.78,23S270.41,347,264.24,354.86a155.7,155.7,0,0,0-16.31,25Z" transform="translate(-48.46 -3.48)" fill="#1c1c1c"/>
    <path d="M310.06,262.18c4.79,1.36,9.94.93,15.11.47,2.6-.23,5.26-.44,7.92-.41s5.3.18,7.92.4c5.24.45,10.43,1.18,15.59,1.86,2.58.33,5.16.66,7.72.93,1.28.12,2.55.23,3.81.28.64,0,1.23.05,1.9,0a6.89,6.89,0,0,1,2.41.31l1,.34v1c-.05,3.23-.48,6.32-.5,9.31s.39,6.07.67,9.16.57,6.23.71,9.38a62.58,62.58,0,0,1-.27,9.57,41.9,41.9,0,0,1-2.23,9.4,43.71,43.71,0,0,1-4.32,8.62,63.36,63.36,0,0,1-5.79,7.57c-2.09,2.36-4.23,4.66-6.48,6.83l-1.81-1.72c4.08-4.67,8.29-9.21,11.52-14.32A38.87,38.87,0,0,0,371,304.49c.71-6,.18-12.13-.39-18.32-.26-3.11-.63-6.17-.64-9.45s.47-6.34.52-9.34l1,1.37a4.36,4.36,0,0,0-1.45-.15c-.64,0-1.35,0-2,0-1.34-.07-2.67-.18-4-.31-2.63-.28-5.22-.65-7.81-1-5.17-.74-10.31-1.53-15.45-2-2.57-.25-5.14-.45-7.7-.47s-5.1.12-7.7.32-5.24.42-7.92.38a26.29,26.29,0,0,1-8-1.26Z" transform="translate(-48.46 -3.48)" fill="#1c1c1c"/>
    <path d="M242.81,407.9a46.59,46.59,0,0,1,8.35-16.75,54.26,54.26,0,0,1,4.11-4.72,89,89,0,0,1,19.9-14.77c7.17-4.09,14.64-7.55,22.09-10.94s14.93-6.69,22-10.69a56.51,56.51,0,0,0,9.82-6.89,20.86,20.86,0,0,0,6.39-9.5A15.76,15.76,0,0,0,336,328a25.78,25.78,0,0,0-1.28-5.69c-1.21-3.79-3.16-7.53-3.65-12a23.74,23.74,0,0,1,0-3.27,22.32,22.32,0,0,1,.47-3.22,17.39,17.39,0,0,1,2.55-6,20.2,20.2,0,0,1,4.53-4.69,44.65,44.65,0,0,1,5.34-3.38,97.7,97.7,0,0,0,10.49-6.05,22.19,22.19,0,0,0,7.45-8.76l2.23,1.1c-1.16,2.13-2.37,4.2-3.63,6.25s-2.58,4.06-4,6a49.45,49.45,0,0,1-4.64,5.68c-.42.45-.92.86-1.38,1.29l-.18.16s.08-.07.09-.09,0,0,0,0a2.75,2.75,0,0,0-.05.58,9.2,9.2,0,0,0,.14,1.6l.13.85.08.46,0,.26a1.89,1.89,0,0,1,0,.55l-2.42-.36c0,.28,0,.11,0,.1l0-.18-.07-.42-.15-.91a15,15,0,0,1-.16-2,4.8,4.8,0,0,1,.13-1.19,2.74,2.74,0,0,1,.35-.79,2.1,2.1,0,0,1,.37-.42l.16-.14c.4-.39.83-.72,1.22-1.16a48.27,48.27,0,0,0,4.39-5.38c1.36-1.91,2.65-3.89,3.88-5.9s2.43-4.07,3.54-6.12l2.23,1.11a24.77,24.77,0,0,1-8.24,9.75,96.33,96.33,0,0,1-10.75,6.23c-3.52,1.92-6.89,4.11-9,7.25a17.7,17.7,0,0,0-2.63,10.91c.38,3.75,2.22,7.47,3.51,11.44a27.5,27.5,0,0,1,1.39,6.26,18.13,18.13,0,0,1-.64,6.51,23.17,23.17,0,0,1-7.1,10.62,59.28,59.28,0,0,1-10.25,7.18c-7.21,4.09-14.75,7.37-22.19,10.75s-14.86,6.78-21.93,10.78A86.31,86.31,0,0,0,256.85,388a45.82,45.82,0,0,0-12,20.47Z" transform="translate(-48.46 -3.48)" fill="#1c1c1c"/>
    <path d="M174.23,329.05l.15,3.28c0,.55.05,1.09.05,1.65l-.09,1.73a20.46,20.46,0,0,1-.47,3.4l-.16.85c-.07.28-.16.55-.23.82l-.5,1.63a55.18,55.18,0,0,1-6.12,11.86c-2.35,3.7-4.82,7.26-6.84,11A29.86,29.86,0,0,0,156.1,377l-1.66-1.52a14.66,14.66,0,0,0,3.7-1.67c1.31-.75,2.67-1.53,4.09-2.22a28.05,28.05,0,0,1,9.17-2.79,21.53,21.53,0,0,1,2.41-.18c.81-.05,1.59,0,2.37,0a39.79,39.79,0,0,1,4.73.36,23.87,23.87,0,0,1,4.73,1.17,23.43,23.43,0,0,1,4.34,2.16,32.92,32.92,0,0,0,3.84,2.13,19.54,19.54,0,0,0,2,.76c.67.21,1.37.36,2.06.54a41.72,41.72,0,0,0,8.72.67,11.55,11.55,0,0,0,4-.85,21.56,21.56,0,0,0,3.73-2.1c1.26-.83,2.57-1.71,4-2.49a31.26,31.26,0,0,1,4.37-2l.95,2.64a27.36,27.36,0,0,0-3.92,1.83c-1.27.71-2.48,1.55-3.76,2.41a24.43,24.43,0,0,1-4.21,2.4,14.79,14.79,0,0,1-4.93,1.12c-.86.06-1.61,0-2.4,0s-1.56,0-2.35-.1l-2.36-.22-2.37-.4c-.79-.2-1.58-.38-2.36-.62a22.61,22.61,0,0,1-2.29-.89,35.32,35.32,0,0,1-4.15-2.3,19.45,19.45,0,0,0-8-3,37.14,37.14,0,0,0-4.38-.34,20.2,20.2,0,0,0-2.2,0,17.14,17.14,0,0,0-2.15.16,25,25,0,0,0-8.25,2.48c-1.32.64-2.61,1.37-3.95,2.13a16.14,16.14,0,0,1-4.64,2l-1.82.37.15-1.9a32.54,32.54,0,0,1,4.29-12.85c2.14-3.91,4.65-7.51,7-11.14a52.92,52.92,0,0,0,5.86-11.25l.46-1.48c.08-.25.17-.49.23-.74l.15-.76a16.56,16.56,0,0,0,.47-3l.12-1.53c0-.53,0-1.08,0-1.61l0-3.24Z" transform="translate(-48.46 -3.48)" fill="#1c1c1c"/>
    <path d="M227.55,365.36a11.63,11.63,0,0,1,2.85,1.47c.84.57,1.58,1.13,2.33,1.67,1.51,1.08,3.05,2.09,4.64,3.06s3.21,1.89,4.85,2.8,3.27,1.81,5,2.58l-1.48,2.84c-.79-.53-1.65-.94-2.49-1.4l-2.5-1.38c-1.65-.94-3.31-1.9-4.93-2.92s-3.23-2.09-4.78-3.23c-.77-.56-1.53-1.15-2.25-1.66a8.93,8.93,0,0,0-2.15-1.14Z" transform="translate(-48.46 -3.48)" fill="#1c1c1c"/>
  </g>
  <g id="underside_hat" data-name="underside hat">
    <path d="M134.76,195.81l-.18-1.82c0-.58,0-1.13,0-1.69l.11-3.38a54.19,54.19,0,0,1,1-6.68,54.8,54.8,0,0,1,1.85-6.51,55.37,55.37,0,0,1,2.84-6.16,49.46,49.46,0,0,1,7.94-10.93,66,66,0,0,1,10.21-8.76,87.35,87.35,0,0,1,11.52-6.81c2-1,4-1.89,6.06-2.82,1-.43,2.06-.83,3.09-1.25s2.07-.83,3.12-1.18a169.15,169.15,0,0,1,25.64-7,239.52,239.52,0,0,1,26.28-3.61q13.22-1.11,26.5-1a83.5,83.5,0,0,1,13.36,1.23,72.41,72.41,0,0,1,13,3.65,102.15,102.15,0,0,1,12.14,5.64c4,2.07,7.66,4.53,11.45,6.84l-1.92,2.87A115.49,115.49,0,0,0,286,134a66.1,66.1,0,0,0-12.39-3.54,81.16,81.16,0,0,0-12.87-1.2c-8.72-.11-17.49.19-26.2.91a236,236,0,0,0-26,3.53,164.39,164.39,0,0,0-25.21,6.84c-1,.34-2,.75-3,1.15s-2,.79-3,1.22c-2,.9-4,1.72-5.9,2.73a83.26,83.26,0,0,0-11.17,6.58,61.6,61.6,0,0,0-9.78,8.37,48.36,48.36,0,0,0-7.58,10.3,41,41,0,0,0-4.53,11.92,56.07,56.07,0,0,0-1.05,6.33l-.19,3.21c0,.54-.08,1.09-.08,1.6l.06,1.48Z" transform="translate(-48.46 -3.48)" fill="#1c1c1c"/>
    <path d="M140.88,180.63c2.64-6.49,7.12-11.94,12.1-16.56a104,104,0,0,1,16.27-12.27,176.05,176.05,0,0,1,36.81-16.94,149.31,149.31,0,0,1,19.7-5,86,86,0,0,1,10.16-1.26c.86-.08,1.72-.09,2.58-.11l1.29,0c.45,0,.9,0,1.36,0a21.12,21.12,0,0,1,5.3,1.06,30.22,30.22,0,0,0,4.63,1.25,25.49,25.49,0,0,0,4.75.29l2.52-.05,1.26,0c.47,0,1,0,1.42.09,1.78.2,3.44.52,5.11.85,6.67,1.37,13.13,3,19.7,4.81l-.94,3.14c-6.35-1.78-12.91-3.45-19.39-4.8-1.62-.32-3.26-.64-4.81-.81-.4-.05-.72-.05-1.09-.08l-1.26,0-2.52,0a28.79,28.79,0,0,1-5.27-.34,33.15,33.15,0,0,1-5.07-1.37,17.56,17.56,0,0,0-4.54-.93c-.39,0-.78,0-1.17,0l-1.22,0c-.81,0-1.63,0-2.45.1a81.83,81.83,0,0,0-9.81,1.2A143.76,143.76,0,0,0,207,137.77a172.58,172.58,0,0,0-36.26,16.47c-2.81,1.77-5.6,3.56-8.26,5.54-1.36.95-2.63,2-3.94,3S156,164.9,154.81,166s-2.37,2.28-3.52,3.45-2.21,2.43-3.19,3.73a36.62,36.62,0,0,0-5.06,8.29Z" transform="translate(-48.46 -3.48)" fill="#1c1c1c"/>
    <path d="M166.12,152A94.72,94.72,0,0,1,183.24,145a175.7,175.7,0,0,1,17.86-4.56,266.64,266.64,0,0,1,36.48-4.79,151.66,151.66,0,0,1,18.47-.19,158.86,158.86,0,0,1,18.34,2.24q9.08,1.65,18,4.13c3,.81,5.9,1.77,8.83,2.77,1.46.54,2.92,1.06,4.37,1.68a28.86,28.86,0,0,1,4.38,2.19L308,151.26a25.92,25.92,0,0,0-3.76-1.95c-1.34-.62-2.76-1.14-4.15-1.68-2.84-1-5.69-2-8.6-2.8a172.27,172.27,0,0,0-17.66-4.19,153.59,153.59,0,0,0-18-2.25,148.12,148.12,0,0,0-18.12.13,272.16,272.16,0,0,0-36.1,4.58A171.37,171.37,0,0,0,184,147.46a96.94,96.94,0,0,0-16.78,6.62Z" transform="translate(-48.46 -3.48)" fill="#1c1c1c"/>
  </g>
  <g id="face_contour" data-name="face contour">
    <path d="M138.27,188.07c3.25,10,6.45,20,9.58,30.07,1.55,5,3.1,10.06,4.57,15.12.72,2.55,1.46,5.05,2.07,7.7.07.35.16.61.22,1l.16,1.19c0,.72,0,1.39-.05,2.08-.08,1.36-.24,2.7-.42,4-.36,2.65-.81,5.22-1,7.75a23.68,23.68,0,0,0-.07,3.76,19.69,19.69,0,0,0,.43,3.63,11.86,11.86,0,0,0,3.39,6,68.56,68.56,0,0,0,6,4.82,36.49,36.49,0,0,1,5.95,5.65c.46.51.86,1.08,1.27,1.63s.83,1.08,1.2,1.72a17.08,17.08,0,0,1,1.81,3.91,50.11,50.11,0,0,1,1.68,8c.2,1.27.42,2.53.72,3.74.16.59.3,1.2.51,1.77a14.66,14.66,0,0,1,.55,1.74l-2.52,1.19a8,8,0,0,1-.91-1.92c-.26-.66-.44-1.33-.64-2-.36-1.34-.63-2.67-.87-4a53.49,53.49,0,0,0-1.65-7.44,15.61,15.61,0,0,0-1.5-3.23,16.37,16.37,0,0,0-1-1.51,18.18,18.18,0,0,0-1.14-1.48,34.49,34.49,0,0,0-5.39-5.27,74.61,74.61,0,0,1-6.21-5.14l-.74-.77-.68-.85a13.53,13.53,0,0,1-1.2-1.84,17.08,17.08,0,0,1-.91-2c-.25-.69-.4-1.39-.6-2.08a23.16,23.16,0,0,1-.46-4.19,25.65,25.65,0,0,1,.13-4.12c.26-2.7.73-5.31,1.09-7.87.18-1.29.33-2.56.41-3.82,0-.62.06-1.27.05-1.86l-.12-.76c0-.23-.13-.6-.19-.89-.56-2.48-1.29-5-2-7.54-1.44-5-3-10.06-4.5-15.08-3.09-10-6.25-20.07-9.46-30Z" transform="translate(-48.46 -3.48)" fill="#1c1c1c"/>
    <path d="M288.05,232.67A50.75,50.75,0,0,1,289.57,222a48.61,48.61,0,0,1,3.7-10.17,26.32,26.32,0,0,1,6.69-8.72,15.22,15.22,0,0,1,5-2.71c.45-.15.93-.24,1.39-.36l1.43-.21c.49,0,.94-.06,1.46-.05a4.59,4.59,0,0,1,1.71.37l.4.19.16.42a15,15,0,0,1,1,4.65,20.48,20.48,0,0,1,0,2.35l-.11,2.23c-.16,3-.32,5.92-.52,8.88l-1.14,17.74c-.37,5.91-.74,11.83-1,17.72-.06,1.48-.11,2.92-.11,4.39s0,3,.06,4.44a7.23,7.23,0,0,1-1.54,5,5,5,0,0,1-2.45,1.5,7.28,7.28,0,0,1-2.6.23l.05-2.36a4.55,4.55,0,0,0,3.08-1.11,4.77,4.77,0,0,0,.88-3.3c0-1.48-.06-3-.05-4.44s.06-3,.13-4.5c.29-5.94.68-11.85,1.06-17.77l1.2-17.74.63-8.86.14-2.2a18.39,18.39,0,0,0,0-2.1,13.25,13.25,0,0,0-.81-4l.56.6a2.27,2.27,0,0,0-.87-.17c-.35,0-.79,0-1.18.05s-.8.11-1.2.16-.79.18-1.17.31a13.2,13.2,0,0,0-4.27,2.33,24.24,24.24,0,0,0-6.1,8,46.37,46.37,0,0,0-3.53,9.71,48.8,48.8,0,0,0-1.45,10.24Z" transform="translate(-48.46 -3.48)" fill="#1c1c1c"/>
    <path d="M295.17,248.62A173.74,173.74,0,0,1,296,228a50.72,50.72,0,0,1,2.16-10.25c.29-.84.63-1.66,1-2.49l.61-1.2a8.06,8.06,0,0,1,.66-1.18l.74-1.15c.26-.37.58-.71.87-1.06a6.53,6.53,0,0,1,1-1l.52-.46a1.9,1.9,0,0,1,.57-.4l1.16,1.52a17.88,17.88,0,0,0-4.94,8.13,54.38,54.38,0,0,0-1.95,9.82c-.41,3.35-.6,6.74-.71,10.13s-.16,6.81-.19,10.22Z" transform="translate(-48.46 -3.48)" fill="#1c1c1c"/>
    <path d="M303.71,272.84c1,5.68.51,11.34.18,16.81-.18,2.75-.32,5.47-.31,8.16,0,1.35.07,2.69.16,4l.15,2,.09,1a4.5,4.5,0,0,1-.07,1l-2.11.41a3.89,3.89,0,0,1-.43-1c-.09-.34-.15-.7-.22-1.05-.13-.7-.24-1.41-.3-2.12a40.11,40.11,0,0,1-.2-4.24c0-2.82.15-5.6.32-8.36.35-5.5.78-10.94,0-16.18Z" transform="translate(-48.46 -3.48)" fill="#1c1c1c"/>
  </g>
  <g id="lips">
    <path d="M198.72,294.94a21,21,0,0,1,3-3.56,8.17,8.17,0,0,1,2.15-1.41,4.48,4.48,0,0,1,2.89-.27,9.68,9.68,0,0,1,2.27,1,2.67,2.67,0,0,0,1.41.47,6,6,0,0,0,1.5-.8,16.59,16.59,0,0,1,2.09-1.1,26,26,0,0,1,9.06-1.86,41.48,41.48,0,0,1,4.6,0,11.32,11.32,0,0,1,4.62,1.14l-.85,2.12a31.64,31.64,0,0,0-4-.78,30.16,30.16,0,0,0-4.26-.05,23.86,23.86,0,0,0-8.23,1.6,12.67,12.67,0,0,0-1.83.94l-1,.59a5.13,5.13,0,0,1-.62.3,2.94,2.94,0,0,1-.85.22,4.75,4.75,0,0,1-2.77-.76,8.33,8.33,0,0,0-1.73-.84,3.5,3.5,0,0,0-3,1.16,18.72,18.72,0,0,0-2.72,3.16Z" transform="translate(-48.46 -3.48)" fill="#1c1c1c"/>
    <path d="M201.64,302.23a38.29,38.29,0,0,1,6.7-2.27,20.28,20.28,0,0,1,3.6-.52,21.28,21.28,0,0,1,3.62.22,28,28,0,0,0,3.29.31,9.39,9.39,0,0,0,2.88-.57,29.75,29.75,0,0,0,3-1.34,14.79,14.79,0,0,1,3.44-1.3l.8,2.9c-.93.36-1.9.73-2.93,1.21a26.31,26.31,0,0,1-3.37,1.31,12,12,0,0,1-1.91.38,9.83,9.83,0,0,1-2,0c-1.24-.09-2.4-.26-3.52-.42a19.05,19.05,0,0,0-3.21-.27,17.62,17.62,0,0,0-3.18.4,33,33,0,0,0-6.28,2.06Z" transform="translate(-48.46 -3.48)" fill="#1c1c1c"/>
  </g>
  <g id="beard">
    <path d="M205.58,310.69l.06,2.38c0,.41,0,.77,0,1.22a10,10,0,0,1-.1,1.34,14.41,14.41,0,0,1-1.67,5,45,45,0,0,1-6,7.81,71.91,71.91,0,0,0-5.94,7.22,20.32,20.32,0,0,0-3.49,8.16,26.06,26.06,0,0,0,.37,9,22,22,0,0,0,3.51,8.19,42.31,42.31,0,0,0,6.3,6.74,28.39,28.39,0,0,1,3.46,3.67,9.21,9.21,0,0,1,1.33,2.41,8.54,8.54,0,0,1,.44,2.83l-2.62.05a7.29,7.29,0,0,0-1.52-3.55,25.3,25.3,0,0,0-3.08-3.28,44.49,44.49,0,0,1-6.69-7.22,25,25,0,0,1-3.94-9.25,32,32,0,0,1-.62-5,24.15,24.15,0,0,1,.25-5.07,23.29,23.29,0,0,1,4-9.27,70.42,70.42,0,0,1,6.22-7.49,42.54,42.54,0,0,0,5.7-7.24,11.74,11.74,0,0,0,1.42-4,7.18,7.18,0,0,0,.09-1c0-.34,0-.78,0-1.17l0-2.38Z" transform="translate(-48.46 -3.48)" fill="#1c1c1c"/>
    <path d="M201.38,314.31a4.93,4.93,0,0,1-.45.41l-.63.57c-.42.37-.83.78-1.24,1.17-.82.8-1.62,1.61-2.39,2.45a61,61,0,0,0-4.41,5.23,43,43,0,0,0-6.56,11.78,24.51,24.51,0,0,0-.88,3.2l-.32,1.63c-.08.54-.08,1.09-.13,1.63s-.11,1.13-.08,1.61a7,7,0,0,0,.21,1.47,22.67,22.67,0,0,0,1.09,3.1,26.54,26.54,0,0,1,2,7A16.64,16.64,0,0,1,187,363l-2.23-.62a20.18,20.18,0,0,0,.17-6.45,24.3,24.3,0,0,0-1.84-6.36,24,24,0,0,1-1.22-3.48,9.85,9.85,0,0,1-.28-2,16.56,16.56,0,0,1,.08-1.89c.05-.61.05-1.23.15-1.84l.34-1.8a28.81,28.81,0,0,1,1-3.53,45.48,45.48,0,0,1,6.95-12.54,62.93,62.93,0,0,1,4.61-5.43c.8-.87,1.64-1.71,2.5-2.53.43-.41.86-.83,1.3-1.22l.68-.6a8.82,8.82,0,0,1,.88-.71Z" transform="translate(-48.46 -3.48)" fill="#1c1c1c"/>
    <path d="M210.77,312.58l.29,5a16,16,0,0,1-.87,5.21,32.18,32.18,0,0,1-5.09,8.84c-2,2.65-4.15,5.16-6.09,7.74a36.11,36.11,0,0,0-4.87,8.16,17.18,17.18,0,0,0-1.18,9,16.61,16.61,0,0,0,3.8,8.24c1,1.27,2.05,2.54,3,4a12.21,12.21,0,0,1,2,5.08l.1,1.4a11.09,11.09,0,0,1-.09,1.4,8.14,8.14,0,0,1-.91,2.77,13.27,13.27,0,0,1-3.7,3.88l-1.46-1.71a13.14,13.14,0,0,0,2.88-3.38,5.59,5.59,0,0,0,.57-1.9c0-.35.06-.7.06-1.06l-.07-1c-.33-2.82-2.48-5.19-4.53-7.84a23.32,23.32,0,0,1-2.77-4.39,17.16,17.16,0,0,1-1.51-5.09,19.74,19.74,0,0,1,1.37-10.31,39.15,39.15,0,0,1,5.22-8.72c2-2.66,4.15-5.16,6.12-7.73a33.18,33.18,0,0,0,4.83-8.12,13.91,13.91,0,0,0,.92-4.44l-.06-4.88Z" transform="translate(-48.46 -3.48)" fill="#1c1c1c"/>
    <path d="M218.31,311.6c.28,1.64.73,3.33,1,5.14a14.84,14.84,0,0,1-.25,5.59,31.71,31.71,0,0,1-4.72,9.68c-1.95,2.92-4,5.69-5.94,8.53a43.81,43.81,0,0,0-4.84,8.83,20.82,20.82,0,0,0-1.21,4.73,16.09,16.09,0,0,0-.13,2.4c.07.81.06,1.63.19,2.42l.22,1.17a5.41,5.41,0,0,0,.12.58l.19.56.39,1.1.54,1a14,14,0,0,0,3,3.63c1.24,1.1,2.63,2.14,4,3.37a12.52,12.52,0,0,1,3.39,4.63,13.15,13.15,0,0,1,.8,2.82,21,21,0,0,1,.12,2.86,12.55,12.55,0,0,1-1.61,5.43l-2-1a13.4,13.4,0,0,0,.93-4.57,7.51,7.51,0,0,0,0-1.16l-.08-1.17a10.52,10.52,0,0,0-.63-2.16c-1.05-2.81-3.92-4.65-6.61-7.05a16.76,16.76,0,0,1-3.57-4.33l-.65-1.28c-.17-.44-.32-.9-.47-1.35l-.23-.67c-.06-.23-.09-.46-.14-.69l-.26-1.38c-.14-.93-.13-1.84-.2-2.76a18.45,18.45,0,0,1,.17-2.78,23.17,23.17,0,0,1,1.38-5.31c2.68-6.79,7.35-12.17,11.14-17.83a30.16,30.16,0,0,0,4.48-8.85A12.53,12.53,0,0,0,217,317c-.2-1.62-.62-3.29-.91-5.07Z" transform="translate(-48.46 -3.48)" fill="#1c1c1c"/>
    <path d="M227.24,316.25a24.8,24.8,0,0,1,2.8,9.18,13.85,13.85,0,0,1-.44,4.95,22.73,22.73,0,0,1-1.83,4.49c-3,5.62-7.12,10.29-10.41,15.37a29.56,29.56,0,0,0-3.91,7.93,12.07,12.07,0,0,0-.45,4.17,7.94,7.94,0,0,0,1.14,3.83c.67,1.15,1.83,2.23,2.72,3.78a9.36,9.36,0,0,1,.95,2.47c.08.43.16.87.2,1.3s0,.85,0,1.27a9,9,0,0,1-1.46,5,13.31,13.31,0,0,1-1.58,1.95l-.85.85a3.07,3.07,0,0,1-.95.71L212,382.2a3.25,3.25,0,0,1,.7-.92q.39-.4.75-.81a13.69,13.69,0,0,0,1.25-1.7,7.12,7.12,0,0,0,1-3.79,7.55,7.55,0,0,0-.93-3.83c-.62-1.15-1.74-2.24-2.65-3.73a10.42,10.42,0,0,1-1.47-4.92,14.57,14.57,0,0,1,.56-5A31.86,31.86,0,0,1,215.4,349c3.43-5.22,7.54-9.88,10.37-15.14a14.38,14.38,0,0,0,2-8.23,22.51,22.51,0,0,0-2.54-8.38Z" transform="translate(-48.46 -3.48)" fill="#1c1c1c"/>
    <path d="M230.64,312.43c2.29,5.31,5.86,10.16,8.3,15.83a24.45,24.45,0,0,1,2.17,9.12,22.51,22.51,0,0,1-1.83,9.25c-2.47,5.83-6.77,10.4-11,14.61-2.11,2.13-4.32,4.13-6.19,6.28a15.34,15.34,0,0,0-2.34,3.34,5.08,5.08,0,0,0-.48,1.7,5.35,5.35,0,0,0-.12.95,7,7,0,0,0,.08,1l-2.08.39c-.08-.4-.17-.8-.23-1.21a5.23,5.23,0,0,1-.14-1.28,7.45,7.45,0,0,1,.61-2.6,17.59,17.59,0,0,1,2.62-4.06c2-2.37,4.19-4.43,6.3-6.51,4.2-4.12,8.25-8.46,10.48-13.67a19.67,19.67,0,0,0,1.67-8.15,22,22,0,0,0-1.91-8.17c-2.19-5.34-5.7-10.24-8.08-15.93Z" transform="translate(-48.46 -3.48)" fill="#1c1c1c"/>
    <path d="M234.67,303.78c2.11,1.73,4.31,3.38,6.49,5.13a39,39,0,0,1,6.13,5.93,19.35,19.35,0,0,1,3.73,8,21.94,21.94,0,0,1,.07,8.77,17.85,17.85,0,0,1-3.89,8c-1.85,2.26-3.93,4.11-5.72,6.07a22,22,0,0,0-4.26,6.44,24.08,24.08,0,0,0-1.54,7.59l-2.81-.1a27,27,0,0,1,1.67-8.57,25,25,0,0,1,4.75-7.34c1.9-2.13,4-4,5.64-6a15,15,0,0,0,3.42-6.67,19.59,19.59,0,0,0,.09-7.67,16.46,16.46,0,0,0-3.1-7c-3.22-4.13-7.88-7.23-12.11-10.84Z" transform="translate(-48.46 -3.48)" fill="#1c1c1c"/>
  </g>
  <g id="right_mustache" data-name="right mustache">
    <path d="M206.77,291.46a9.29,9.29,0,0,0-4.43,1.13,10.69,10.69,0,0,0-3.38,3.19,34.62,34.62,0,0,0-4,9.14c-1,3.26-1.93,6.61-3,9.94a32.07,32.07,0,0,1-4.82,9.62,12.65,12.65,0,0,1-10,4.95,11.44,11.44,0,0,1-5.68-1.22,11.69,11.69,0,0,1-4.33-3.92A14.37,14.37,0,0,1,165,319a17.11,17.11,0,0,1-.18-5.62,15.81,15.81,0,0,1,1.68-5.42,8.33,8.33,0,0,1,4.52-4.11l.87,2.64a5.68,5.68,0,0,0-2.88,2.81,13.39,13.39,0,0,0-1.35,4.45,13.89,13.89,0,0,0,1.85,9c3.12,5.42,11.83,5.17,15.63.16a21.13,21.13,0,0,0,2.6-4.12c.71-1.51,1.32-3.08,1.89-4.68,1.11-3.22,2-6.55,3.11-9.87a36.63,36.63,0,0,1,4.4-9.74,13,13,0,0,1,4.14-3.82,11.44,11.44,0,0,1,5.52-1.38Z" transform="translate(-48.46 -3.48)" fill="#1c1c1c"/>
    <path d="M197.7,290a11.76,11.76,0,0,0-3.91,4.21,33.4,33.4,0,0,0-2.52,5.6c-1.4,3.94-2.42,8.09-3.86,12.2a30.63,30.63,0,0,1-2.79,6.07,13.72,13.72,0,0,1-2.29,2.74,9.7,9.7,0,0,1-3.25,1.86,9.33,9.33,0,0,1-1.87.35,5.06,5.06,0,0,1-2.11-.14,4,4,0,0,1-2-1.35,5,5,0,0,1-1-2,9.6,9.6,0,0,1,1.33-7.32l2.36,1.62a7.19,7.19,0,0,0-.85,5c.23.76.52,1.17,1,1.33a2.49,2.49,0,0,0,1,.07,7.89,7.89,0,0,0,1.28-.18,6.3,6.3,0,0,0,2.27-1.26,11,11,0,0,0,1.82-2.15,28.43,28.43,0,0,0,2.58-5.51c1.42-3.93,2.48-8.08,4-12.16a31.79,31.79,0,0,1,2.81-6,13.38,13.38,0,0,1,4.87-4.9Z" transform="translate(-48.46 -3.48)" fill="#1c1c1c"/>
    <path d="M190.68,289.62a5.19,5.19,0,0,0-1,.05l-.52.12-.5.18a5.16,5.16,0,0,0-1.72,1.33,14.21,14.21,0,0,0-2.35,4.36c-.62,1.64-1.12,3.36-1.67,5.11a29.34,29.34,0,0,1-2.1,5.32,7.35,7.35,0,0,1-2.17,2.51,4.81,4.81,0,0,1-1.75.75c-.32,0-.63.08-.95.1a4.86,4.86,0,0,1-1-.12,6.65,6.65,0,0,1-3-1.62,9.35,9.35,0,0,1-2-2.53,11.26,11.26,0,0,1-1.23-6,10.22,10.22,0,0,1,.66-3,4,4,0,0,1,.79-1.37,7.8,7.8,0,0,1,.58-.57l.55-.55,1.35,1.12a2.37,2.37,0,0,0-.26.53c-.07.19-.07.41-.12.6A6.56,6.56,0,0,1,172,297a11.94,11.94,0,0,0-.37,2.32,8.87,8.87,0,0,0,.91,4.49,6.53,6.53,0,0,0,1.33,1.77,4,4,0,0,0,1.69,1,3,3,0,0,0,.38.06l.4,0a2.2,2.2,0,0,0,.73-.31,4.73,4.73,0,0,0,1.34-1.57,26.12,26.12,0,0,0,1.95-4.77c.57-1.7,1.11-3.46,1.8-5.21a16.59,16.59,0,0,1,2.92-5.09,7.58,7.58,0,0,1,2.6-1.9l.79-.28.81-.16a6.71,6.71,0,0,1,1.69,0Z" transform="translate(-48.46 -3.48)" fill="#1c1c1c"/>
    <path d="M185.22,321.46a16.21,16.21,0,0,1-5,4,13.84,13.84,0,0,1-6.41,1.64,13.55,13.55,0,0,1-11.18-6.6,13.08,13.08,0,0,1-1.8-6.47,34.19,34.19,0,0,1,.57-6.22,26.19,26.19,0,0,1,1.89-6,19.26,19.26,0,0,1,1.57-2.8,12.19,12.19,0,0,1,1-1.3,4.6,4.6,0,0,1,.67-.49l.35-.23a.9.9,0,0,1,.4-.17l1.39,1.37a9.13,9.13,0,0,1-.55,1.34c-.28.36-.54.72-.79,1.1a16.48,16.48,0,0,0-1.31,2.41,23.11,23.11,0,0,0-1.59,5.35,31.33,31.33,0,0,0-.45,5.64,9.84,9.84,0,0,0,1.38,4.88,10.66,10.66,0,0,0,8.5,5.07,13.45,13.45,0,0,0,9.46-4.31Z" transform="translate(-48.46 -3.48)" fill="#1c1c1c"/>
  </g>
  <g id="left_mustache" data-name="left mustache">
    <path d="M235.31,273.1A16.61,16.61,0,0,1,246.52,272a12.64,12.64,0,0,1,5.16,2.68,29.64,29.64,0,0,1,3.67,4.13,17.69,17.69,0,0,0,3.42,3.57,10.06,10.06,0,0,0,4.29,1.73c.79.1,1.6.13,2.43.16s1.71,0,2.54-.12a23.33,23.33,0,0,0,4.9-.93,13.49,13.49,0,0,0,4.21-2.23,12.83,12.83,0,0,0,3-3.65c1.63-2.84,2.41-6.25,3.76-9.68a16.68,16.68,0,0,1,2.91-5,11.24,11.24,0,0,1,5-3.28,19.33,19.33,0,0,1,11.24,0l-.69,2.43a19.09,19.09,0,0,0-4.88-.55,15.17,15.17,0,0,0-4.76.76,8.43,8.43,0,0,0-3.72,2.52,14.44,14.44,0,0,0-2.35,4.17c-1.26,3.13-2.13,6.68-4.05,10a15.31,15.31,0,0,1-3.75,4.4,16.55,16.55,0,0,1-5.12,2.65,26.4,26.4,0,0,1-5.5,1c-.92.09-1.83.07-2.75.11s-1.9-.08-2.85-.21a12.63,12.63,0,0,1-5.41-2.24,20.06,20.06,0,0,1-3.89-4.06,27.25,27.25,0,0,0-3.32-3.81,10,10,0,0,0-4.13-2.18l-1.17-.25a8.26,8.26,0,0,0-1.22-.11l-1.23-.08c-.41,0-.82,0-1.22.05a12.25,12.25,0,0,0-4.62,1.22Z" transform="translate(-48.46 -3.48)" fill="#1c1c1c"/>
    <path d="M260.38,278.13a12.31,12.31,0,0,0,4.83,3.5,8.17,8.17,0,0,0,2.81.61,3.7,3.7,0,0,0,2.35-.7c1.33-1.05,2.18-3.08,2.88-5.09s1.35-4.18,2.24-6.29a19.43,19.43,0,0,1,3.71-6,11.87,11.87,0,0,1,6.39-3.47c.59-.13,1.19-.17,1.79-.25s1.16-.06,1.79-.05a10.34,10.34,0,0,1,3.62.87c1.1.46,2.08,1,3,1.45.48.23.95.43,1.42.6s.88.47,1.36.67l-.24,1.62a6.35,6.35,0,0,1-1.85-.14,17.71,17.71,0,0,1-1.65-.65c-1.05-.47-2-1-3-1.35a7.6,7.6,0,0,0-2.79-.63c-.48,0-1,.05-1.52.06s-1,.12-1.48.25a11,11,0,0,0-2.76,1,10.4,10.4,0,0,0-2.3,1.79,17.13,17.13,0,0,0-3.15,5.23c-.8,2-1.46,4.06-2.25,6.17a27.73,27.73,0,0,1-1.41,3.19,8.93,8.93,0,0,1-2.41,3,6.11,6.11,0,0,1-3.88,1.15,10.41,10.41,0,0,1-3.62-.83,14.46,14.46,0,0,1-5.73-4.28Z" transform="translate(-48.46 -3.48)" fill="#1c1c1c"/>
    <path d="M226.51,287.27a10.82,10.82,0,0,1,6.3-3.87,22.69,22.69,0,0,1,7.11-.55,15.71,15.71,0,0,1,6.92,2.22,17.22,17.22,0,0,1,2.86,2.31,23,23,0,0,1,2.28,2.77c2.73,3.86,4.35,8.21,7.09,11.39a10.46,10.46,0,0,0,2.26,2,10.82,10.82,0,0,0,1.28.73,11.51,11.51,0,0,0,1.4.47,11,11,0,0,0,3,.35l1.58-.08c.52,0,1-.15,1.54-.23a10.69,10.69,0,0,0,5.36-2.61,16.18,16.18,0,0,0,3.54-5.09c1.83-3.92,2.94-8.33,4.62-12.64s3.78-8.7,7.27-12.11a25.09,25.09,0,0,1,5.83-4.26,30.3,30.3,0,0,1,6.69-2.48l.71,2.83a29.65,29.65,0,0,0-6,2.32,22.56,22.56,0,0,0-5.05,3.79,31.15,31.15,0,0,0-6.58,11c-1.61,4.13-2.81,8.53-4.9,12.8a19.67,19.67,0,0,1-4.27,5.91,13.64,13.64,0,0,1-6.71,3.24c-.61.08-1.22.2-1.82.25l-1.81.08a14,14,0,0,1-3.72-.47,12.32,12.32,0,0,1-6.26-4.09c-3.15-3.78-4.68-8.14-7.11-11.72a15.36,15.36,0,0,0-4.35-4.51,13.35,13.35,0,0,0-5.88-1.94,20.71,20.71,0,0,0-6.38.42,8.76,8.76,0,0,0-5.11,3Z" transform="translate(-48.46 -3.48)" fill="#1c1c1c"/>
    <path d="M231.71,290.87a11.21,11.21,0,0,1,4.1-.68,22.52,22.52,0,0,1,4,.35,12,12,0,0,1,7.16,4,20.42,20.42,0,0,1,3.48,7.26c.37,1.24.73,2.44,1.17,3.56a8,8,0,0,0,1.61,2.88L252,309.68a8.43,8.43,0,0,1-2.54-3.49c-.48-1.28-.83-2.54-1.18-3.76a18.08,18.08,0,0,0-2.92-6.58,10,10,0,0,0-5.95-3.39,20.79,20.79,0,0,0-3.64-.37,9.42,9.42,0,0,0-3.44.51Z" transform="translate(-48.46 -3.48)" fill="#1c1c1c"/>
    <path d="M234,293.18c1.08.37,2.16.73,3.23,1.14l1.56.76a10.26,10.26,0,0,1,1.52.84l1.46,1c.47.35.9.74,1.36,1.11.22.2.45.38.66.58l.61.62c.39.43.83.83,1.18,1.28,1.51,1.75,2.7,3.65,4,5.24a13.31,13.31,0,0,0,4.65,3.7c3.63,1.63,8,1.82,12.26,1.64,1.07,0,2.11-.19,3.17-.28l1.55-.28.77-.14.75-.2a19,19,0,0,0,5.65-2.37,18.67,18.67,0,0,0,7.36-9.56c1.56-3.94,2.46-8.23,3.76-12.52a41.39,41.39,0,0,1,2.42-6.39,20.51,20.51,0,0,1,4.07-5.77,18,18,0,0,1,6-3.83c1.13-.4,2.23-.65,3.18-1a11.24,11.24,0,0,0,2.51-1.21l1.63,1.87a7.7,7.7,0,0,1-3.26,1.92c-1.13.38-2.19.64-3.12,1a15.29,15.29,0,0,0-5,3.25c-2.88,2.84-4.45,6.86-5.64,11s-2.15,8.51-3.83,12.78a25.94,25.94,0,0,1-3.33,6.13,19,19,0,0,1-5.22,4.81,21.5,21.5,0,0,1-6.48,2.71l-.85.23-.85.15-1.7.3c-1.14.1-2.28.27-3.41.31a47.43,47.43,0,0,1-6.84-.17l-1.72-.25a9.4,9.4,0,0,1-1.72-.36l-1.71-.48-1.66-.73a15.79,15.79,0,0,1-5.5-4.56c-1.44-1.83-2.57-3.7-3.92-5.3a22.18,22.18,0,0,0-10.28-6.87Z" transform="translate(-48.46 -3.48)" fill="#1c1c1c"/>
  </g>
  <g id="nose_and_brow" data-name="nose and brow">
    <path d="M155.36,223a33.62,33.62,0,0,1,9.15-3.55c1.56-.41,3.13-.75,4.72-1a29.61,29.61,0,0,1,4.92-.56,19.54,19.54,0,0,1,9.73,2.42,17.58,17.58,0,0,1,6.81,7.42,32.94,32.94,0,0,1,2.93,9.41,66.71,66.71,0,0,1,.82,9.64c0,3.2,0,6.33-.07,9.5,0,1.58-.06,3.18,0,4.72,0,.77,0,1.55-.06,2.33s-.09,1.56-.11,2.34l-2,.18c-.08-.8-.19-1.59-.29-2.39s-.16-1.6-.23-2.41c-.15-1.62,0-3.18,0-4.77,0-3.15.13-6.34.11-9.46a63,63,0,0,0-.71-9.24,30.29,30.29,0,0,0-2.63-8.67,14.93,14.93,0,0,0-5.77-6.4,17,17,0,0,0-8.46-2.13,27.64,27.64,0,0,0-4.49.47c-1.52.25-3,.57-4.55.94a31.65,31.65,0,0,0-8.52,3.15Z" transform="translate(-48.46 -3.48)" fill="#1c1c1c"/>
    <path d="M206.28,226.13a50.69,50.69,0,0,1,1-7.69,17.56,17.56,0,0,1,3.32-7.24,16.32,16.32,0,0,1,6.5-4.63,41,41,0,0,1,7.47-2.22c2.52-.53,5-.94,7.58-1.28a28.5,28.5,0,0,1,7.83.14,45,45,0,0,1,7.55,1.78c1.23.39,2.44.83,3.64,1.31s2.34,1.07,3.5,1.64l-.61,1.28c-1.15-.5-2.33-.93-3.5-1.38s-2.34-.88-3.54-1.25a43.66,43.66,0,0,0-7.28-1.69,27.1,27.1,0,0,0-7.36-.11c-2.49.35-5,.77-7.44,1.3a39.69,39.69,0,0,0-7.13,2.14,14.5,14.5,0,0,0-5.78,4.13,16.61,16.61,0,0,0-3,6.5,48.77,48.77,0,0,0-1.11,7.39Z" transform="translate(-48.46 -3.48)" fill="#1c1c1c"/>
    <path d="M189.17,274.07a6,6,0,0,0-2.06,1.76c-.08.13-.09.22-.08.22h0V276a.69.69,0,0,0,0-.2.78.78,0,0,0-.17-.34l.14.15.27.3,1.14,1.21c1.56,1.59,3.15,3.16,4.83,4.6a27.65,27.65,0,0,0,5.27,3.75l.68.33c.23.1.45.15.67.23l.34.11.3,0a2.93,2.93,0,0,0,.65.06,18.27,18.27,0,0,0,3.14-.32,14.42,14.42,0,0,0,2.94-.95,13.08,13.08,0,0,0,2.62-1.61,23.26,23.26,0,0,0,4.34-4.74,30.35,30.35,0,0,1,4.57-5.44,8,8,0,0,1,3.61-1.77,7.11,7.11,0,0,1,1-.13l.52,0a3.34,3.34,0,0,1,.68.07,3,3,0,0,1,1.4.7,3.3,3.3,0,0,1,.81,1.21l.26.66-.39.6a11,11,0,0,1-3.51,3.45,7.91,7.91,0,0,1-5,1.09l.24-2.72a7.1,7.1,0,0,0,1.73-.16,5.65,5.65,0,0,0,1.61-.62,8.08,8.08,0,0,0,2.63-2.55l-.13,1.25c-.14-.26-.09-.19-.22-.24l-.16,0-.33,0a3.61,3.61,0,0,0-.66.08,5.19,5.19,0,0,0-2.42,1.19,28.45,28.45,0,0,0-4.14,4.94,26,26,0,0,1-4.86,5.22,15.41,15.41,0,0,1-3.16,1.92,17,17,0,0,1-3.52,1.12,20.07,20.07,0,0,1-3.61.35,6.74,6.74,0,0,1-1-.08l-.54-.08-.47-.16a9.44,9.44,0,0,1-.94-.32l-.84-.41a29.92,29.92,0,0,1-5.77-4.13,68.34,68.34,0,0,1-5-4.81l-1.17-1.29-.29-.34L185,277a1.9,1.9,0,0,1-.3-.5,1.15,1.15,0,0,1-.08-.29l0-.14V276a2.81,2.81,0,0,1,.42-1.37,5.66,5.66,0,0,1,1.46-1.56,10.16,10.16,0,0,1,1.62-1Z" transform="translate(-48.46 -3.48)" fill="#1c1c1c"/>
    <path d="M226.78,274.73a14.9,14.9,0,0,0,2.65-4,10.91,10.91,0,0,0,.67-2.22,12.72,12.72,0,0,0,.2-2.31l2.39-.12a11.58,11.58,0,0,1-1,5.63,16,16,0,0,1-3.17,4.6Z" transform="translate(-48.46 -3.48)" fill="#1c1c1c"/>
  </g>
  <g id="right_eye" data-name="right eye">
    <path d="M157.31,234.74a10.09,10.09,0,0,1,2.44-3.49,21.11,21.11,0,0,1,3.13-2.49,28.08,28.08,0,0,1,3.44-1.9,17.87,17.87,0,0,1,3.81-1.36,6.6,6.6,0,0,1,1.18-.16c.37,0,.73,0,1.08.06a11.51,11.51,0,0,1,2.07.43,26.35,26.35,0,0,1,3.66,1.47,21.39,21.39,0,0,0,3.3,1.34l1.77.45a4.69,4.69,0,0,1,1.85.82l-.77,2.08a5.8,5.8,0,0,1-1.75-.26c-.6-.15-1.22-.31-1.87-.51a30.87,30.87,0,0,1-3.64-1.55,23.74,23.74,0,0,0-3.29-1.37,9.48,9.48,0,0,0-1.61-.35,7.13,7.13,0,0,0-.79,0,3.86,3.86,0,0,0-.68.09,16.77,16.77,0,0,0-3.27,1.14,26.59,26.59,0,0,0-3.15,1.71,18.44,18.44,0,0,0-2.77,2.15,7.72,7.72,0,0,0-1.9,2.61Z" transform="translate(-48.46 -3.48)" fill="#1c1c1c"/>
    <path d="M160.34,239.6a3.23,3.23,0,0,0,.65,1.15,8.08,8.08,0,0,0,1.23,1.07,14.26,14.26,0,0,0,3.07,1.62,16.35,16.35,0,0,0,3.39.91,11.21,11.21,0,0,0,3.42,0,13.42,13.42,0,0,0,6.25-2.87,50.53,50.53,0,0,0,5.37-5l1.65,1.58a52.36,52.36,0,0,1-5.6,5.3,15.54,15.54,0,0,1-7.33,3.3,13.42,13.42,0,0,1-4.1,0,18.18,18.18,0,0,1-3.87-1.07,16.42,16.42,0,0,1-3.57-1.91,6.56,6.56,0,0,1-2.73-3.57Z" transform="translate(-48.46 -3.48)" fill="#1c1c1c"/>
    <path d="M168.24,229.94a8.82,8.82,0,0,0-2,4.34,4.65,4.65,0,0,0,1.24,4.15,5.78,5.78,0,0,0,8.29.12,7.76,7.76,0,0,0,2-4.24,9.71,9.71,0,0,0,.09-1.21,3.85,3.85,0,0,0-.12-1,3.73,3.73,0,0,0-1-1.74,6.57,6.57,0,0,0-4.15-1.65,8.78,8.78,0,0,0-2.34.18,5.25,5.25,0,0,0-2.17.93Zm-1.34-1.47a8.27,8.27,0,0,1,2.63-1.82,7.89,7.89,0,0,1,3.14-.59,8.44,8.44,0,0,1,6,2.36,6.19,6.19,0,0,1,1.84,4.74,11.76,11.76,0,0,1-.15,1.56,10.31,10.31,0,0,1-2.85,5.56,8.16,8.16,0,0,1-11.69-.27,7.16,7.16,0,0,1-1.62-2.85,6.13,6.13,0,0,1-.28-1.65,7.12,7.12,0,0,1,.14-1.63A12.57,12.57,0,0,1,165,231a7.91,7.91,0,0,1,1.81-2.67Z" transform="translate(-48.46 -3.48)" fill="#1c1c1c"/>
    <path d="M176,235.93a12,12,0,0,1-1.73.92,3.57,3.57,0,0,1-1.3.26,2.91,2.91,0,0,1-1.47-.42,4.15,4.15,0,0,1-1.65-1.92,3.62,3.62,0,0,1-.17-2.69l2.38.88a1.4,1.4,0,0,0,.13.79,2,2,0,0,0,.6.8.67.67,0,0,0,.22.09,1.18,1.18,0,0,0,.44-.07,11.57,11.57,0,0,0,1.45-.71Z" transform="translate(-48.46 -3.48)" fill="#1c1c1c"/>
  </g>
  <g id="left_eye" data-name="left eye">
    <path d="M217.45,226.48a10.39,10.39,0,0,1,2.82-3.66,24,24,0,0,1,3.54-2.48,30,30,0,0,1,7.92-3.11,22.79,22.79,0,0,1,8.54-.4c2.76.32,5.42.8,8,.91l-.11,2.56c-2.85-.13-5.56-.64-8.21-1a20.21,20.21,0,0,0-7.68.32,27.56,27.56,0,0,0-7.26,2.82,20.72,20.72,0,0,0-3.15,2.18,8.13,8.13,0,0,0-2.18,2.72Z" transform="translate(-48.46 -3.48)" fill="#1c1c1c"/>
    <path d="M221.91,230c.63,1.55,3,2.2,5.26,2.36a24.5,24.5,0,0,0,7-.4,19.26,19.26,0,0,0,3.28-1,20.57,20.57,0,0,0,3-1.67,31.36,31.36,0,0,0,5.14-4.73l1.89,1.51a21.94,21.94,0,0,1-5.55,5.4,21.47,21.47,0,0,1-3.46,1.89,20.69,20.69,0,0,1-3.75,1.19,26.9,26.9,0,0,1-7.74.42,14.14,14.14,0,0,1-4-.88,6.67,6.67,0,0,1-1.92-1.14,5.42,5.42,0,0,1-1.43-1.94Z" transform="translate(-48.46 -3.48)" fill="#1c1c1c"/>
    <path d="M218.66,214.44a12.25,12.25,0,0,1,6.05-3.5,24.9,24.9,0,0,1,6.73-.63c4.43.1,8.77.84,12.91.84l.08,2.07a43.84,43.84,0,0,1-6.63-.32c-2.16-.22-4.29-.44-6.41-.5a22.9,22.9,0,0,0-6.17.53,10.19,10.19,0,0,0-5.08,2.87Z" transform="translate(-48.46 -3.48)" fill="#1c1c1c"/>
    <path d="M236.5,230.4h-.09a13.2,13.2,0,0,1-1.67,0,9.4,9.4,0,0,1-1.4-.29,8.24,8.24,0,0,1-2.63-1.24,9.27,9.27,0,0,1-3.31-4.59,9,9,0,0,1-.35-1.4,4.48,4.48,0,0,1-.08-.79,4.22,4.22,0,0,1,.12-1,4.49,4.49,0,0,1,2.21-2.4,12,12,0,0,1,2.55-1,19.4,19.4,0,0,1,2.58-.63,11.89,11.89,0,0,1,5.49.11,5,5,0,0,1,2.62,1.78,4.88,4.88,0,0,1,.86,3.06,8.71,8.71,0,0,1-2.36,5.16,10,10,0,0,1-2.12,1.86c-.37.25-.75.49-1.12.71l-.56.32-.28.16A4.91,4.91,0,0,1,236.5,230.4Zm-.62-2v0s0,0,0-.05l.27-.16.53-.31c.35-.21.69-.42,1-.64a7.9,7.9,0,0,0,1.66-1.47,6.73,6.73,0,0,0,1.82-3.83,2.5,2.5,0,0,0-1.91-2.73,9.86,9.86,0,0,0-4.51-.14,12.37,12.37,0,0,0-4.41,1.43,2.4,2.4,0,0,0-1.14,1.23c0,.1,0,.14,0,.28a3.55,3.55,0,0,0,.09.45,8.33,8.33,0,0,0,.33,1,10.59,10.59,0,0,0,1,1.94,8.28,8.28,0,0,0,1.46,1.55,6.61,6.61,0,0,0,1.87,1,7.48,7.48,0,0,0,1.06.27A7.17,7.17,0,0,1,235.88,228.39Z" transform="translate(-48.46 -3.48)" fill="#1c1c1c"/>
    <path d="M237.15,225.33a4.33,4.33,0,0,1-1.52,0,3.66,3.66,0,0,1-1.46-.66,5.06,5.06,0,0,1-1.65-2.32l2.23-.83a2.9,2.9,0,0,0,.83,1.27,1.65,1.65,0,0,0,.54.25,1.91,1.91,0,0,0,.68,0Z" transform="translate(-48.46 -3.48)" fill="#1c1c1c"/>
  </g>
  <g id="hair">
    <path d="M258.28,139.89a24.22,24.22,0,0,1,11.07,4.21A19.11,19.11,0,0,1,276,154a66.3,66.3,0,0,1,2,11.43,43.62,43.62,0,0,0,.9,5.43,8.06,8.06,0,0,0,2.26,4.21,6.5,6.5,0,0,0,4.43,1.19,25.46,25.46,0,0,0,5.29-1,23.82,23.82,0,0,1,3-.61,13.51,13.51,0,0,1,1.58-.11,5.88,5.88,0,0,1,1.82.3c1.08.36,1.9.79,2.73,1.12a10.49,10.49,0,0,0,2.42.69,9.87,9.87,0,0,0,1.23.1,5.35,5.35,0,0,0,1.13-.11,8.24,8.24,0,0,0,2.26-.83,10.17,10.17,0,0,0,3.62-3.32,4.63,4.63,0,0,0,.44-1l.06-.22a.88.88,0,0,1,0-.16c0-.11,0-.31,0-.45a2,2,0,0,0-.89-1.43,6.49,6.49,0,0,0-2.14-.93c-.84-.23-1.74-.42-2.67-.6l.46-2.57c1.86.34,3.91.51,6,1.88a4.84,4.84,0,0,1,2,3.27,7.47,7.47,0,0,1,0,1l-.06.54c0,.16-.08.31-.12.47a6.78,6.78,0,0,1-.74,1.63,12.89,12.89,0,0,1-4.67,4.3,11.05,11.05,0,0,1-3.07,1.12,9.57,9.57,0,0,1-1.69.15,12.34,12.34,0,0,1-1.61-.13,14.4,14.4,0,0,1-3-.87c-.93-.38-1.8-.82-2.53-1.06a3,3,0,0,0-1-.17c-.41,0-.83,0-1.25.08a22.21,22.21,0,0,0-2.62.54,27,27,0,0,1-5.86,1.1,12.11,12.11,0,0,1-1.59,0,8.4,8.4,0,0,1-1.62-.26,7.47,7.47,0,0,1-1.6-.57,8.31,8.31,0,0,1-1.46-.95,10.67,10.67,0,0,1-3.12-5.61,45.17,45.17,0,0,1-.95-5.8,63.78,63.78,0,0,0-1.76-11,16.8,16.8,0,0,0-5.65-8.77,21.93,21.93,0,0,0-9.93-3.95Z" transform="translate(-48.46 -3.48)" fill="#1c1c1c"/>
    <path d="M264.42,139.35c.75,0,1.51.08,2.27.11s1.5.26,2.24.45a14.58,14.58,0,0,1,4.14,2,16.93,16.93,0,0,1,3.36,3.07,21.92,21.92,0,0,1,2.42,3.79,27.5,27.5,0,0,1,2.57,8.47,32.63,32.63,0,0,1,.25,4.43c0,1.48-.21,3-.36,4.33-.31,2.71-.4,5.49.76,7.48a4.28,4.28,0,0,0,2.5,2,9.68,9.68,0,0,0,3.71.29c2.63-.15,5.24-.85,6.71-2.64a7.22,7.22,0,0,0,1-1.52,21.87,21.87,0,0,1,1.06-2,3,3,0,0,1,.64-.69,2.29,2.29,0,0,1,1.12-.46l.31,0h.2l.39,0a5.38,5.38,0,0,1,.66.15c.41.1.76.23,1.07.32a3.16,3.16,0,0,0,.7.17l-.13,2.66a5.65,5.65,0,0,1-1.36-.28l-1-.3a3.74,3.74,0,0,0-.38-.08l-.14,0h0a.3.3,0,0,0,.16-.06s0,0-.07.09c-.23.34-.52,1.07-.87,1.74a10.57,10.57,0,0,1-1.33,2,9.31,9.31,0,0,1-4.06,2.71,16.43,16.43,0,0,1-4.52.84,12,12,0,0,1-4.7-.43,6.94,6.94,0,0,1-3.94-3.18,10.52,10.52,0,0,1-1.28-4.64,27.21,27.21,0,0,1,.19-4.46c.17-1.43.36-2.78.41-4.12a30.27,30.27,0,0,0-.17-4,24.3,24.3,0,0,0-2.2-7.74,19.51,19.51,0,0,0-2.1-3.38,14.13,14.13,0,0,0-2.85-2.67,12.31,12.31,0,0,0-7.34-2.23Z" transform="translate(-48.46 -3.48)" fill="#1c1c1c"/>
    <path d="M280.5,146a10.23,10.23,0,0,1,2.49,3.16,13,13,0,0,1,1.21,3.76,37.86,37.86,0,0,1,.21,7.49c0,1.19-.08,2.4-.05,3.56a11,11,0,0,0,.49,3.22,5.64,5.64,0,0,0,4.14,3.93,12.27,12.27,0,0,0,6.46-.27,11.58,11.58,0,0,0,5.44-3.38,5.44,5.44,0,0,0,1.21-2.6,2.36,2.36,0,0,0-.58-2.19A3.77,3.77,0,0,0,299,162a11.27,11.27,0,0,0-3.35.62l-.53-1.54a19.79,19.79,0,0,1,3.64-1.32,6,6,0,0,1,2.16,0,4.94,4.94,0,0,1,2.2,1,4.3,4.3,0,0,1,1.4,2.1,5.61,5.61,0,0,1,.15,2.32,7.59,7.59,0,0,1-1.74,3.93,14,14,0,0,1-6.71,4.22,14.85,14.85,0,0,1-7.89.27,8.54,8.54,0,0,1-3.71-2,8.44,8.44,0,0,1-2.16-3.63,13.55,13.55,0,0,1-.55-3.95c0-1.26,0-2.47.1-3.7a37.3,37.3,0,0,0-.05-7,9.08,9.08,0,0,0-2.82-5.72Z" transform="translate(-48.46 -3.48)" fill="#1c1c1c"/>
    <path d="M287,147.83l.13.62.07.51.11,1c.08.63.14,1.26.24,1.87a24.93,24.93,0,0,0,.8,3.59,11.76,11.76,0,0,0,3.74,5.79,10.42,10.42,0,0,0,6.49,2,4.92,4.92,0,0,0,5.09-2.79l2.39,1.16a7.34,7.34,0,0,1-3.17,3.33,8.11,8.11,0,0,1-4.38.84,12.83,12.83,0,0,1-7.9-2.66,13.87,13.87,0,0,1-4.33-7,24.85,24.85,0,0,1-.75-3.94c-.09-.66-.13-1.31-.19-2l-.07-.94,0-.45c0-.11,0-.21,0-.32Z" transform="translate(-48.46 -3.48)" fill="#1c1c1c"/>
    <path d="M258.11,143.59a43.52,43.52,0,0,0-.42,5.5,7.18,7.18,0,0,0,1.44,4.56,12.15,12.15,0,0,0,4,3.06c1.6.86,3.34,1.6,5.07,2.5a20.06,20.06,0,0,1,5,3.41,12.54,12.54,0,0,1,3.29,5.33,18.49,18.49,0,0,1,.76,6.05l-.15,2.84a13.56,13.56,0,0,0,.15,2.51c.54,3.25,3.28,5.65,6.46,7.08a31.72,31.72,0,0,0,10.51,2.39c.91.06,1.82.09,2.73.1.47,0,.86,0,1.29,0s.84-.09,1.26-.18a18.84,18.84,0,0,0,4.91-1.75,18,18,0,0,0,7.52-7.07l2.23,1.07a16.23,16.23,0,0,1-3.55,5,21,21,0,0,1-4.87,3.55,19.62,19.62,0,0,1-5.72,2c-.5.11-1,.15-1.54.22s-1.07.06-1.55.05c-1,0-1.94-.05-2.92-.12A34.43,34.43,0,0,1,282.53,189a16.94,16.94,0,0,1-5.07-3.48,10.84,10.84,0,0,1-3-5.65,16.87,16.87,0,0,1-.18-3.13l.16-2.82a15.91,15.91,0,0,0-.61-5.14,9.85,9.85,0,0,0-2.58-4.21,17.71,17.71,0,0,0-4.33-3c-1.62-.85-3.36-1.6-5.09-2.53a13.53,13.53,0,0,1-4.81-3.89,10,10,0,0,1-1.72-6.11,44.71,44.71,0,0,1,.6-5.77Z" transform="translate(-48.46 -3.48)" fill="#1c1c1c"/>
    <path d="M283.05,179.15c1.28,2.21,4,3.61,6.71,4.44a25.63,25.63,0,0,0,4.26.91,12.45,12.45,0,0,0,2.06.12,13.2,13.2,0,0,0,2.05-.33,34.9,34.9,0,0,0,8.23-3.16,22.06,22.06,0,0,0,3.61-2.37,6.74,6.74,0,0,0,2.2-2.87l2.54.46a6,6,0,0,1-1.2,2.64,12.68,12.68,0,0,1-1.82,1.84,24.29,24.29,0,0,1-4.07,2.66,37.85,37.85,0,0,1-8.91,3.36,14.59,14.59,0,0,1-2.49.38,16.87,16.87,0,0,1-2.52-.14A26.27,26.27,0,0,1,289,186a19.12,19.12,0,0,1-4.46-2.06,9.94,9.94,0,0,1-3.56-3.74Z" transform="translate(-48.46 -3.48)" fill="#1c1c1c"/>
    <path d="M276.93,216.75c3-2.45,6.42-4.11,9.59-5.83a32.09,32.09,0,0,0,4.49-2.87,21.58,21.58,0,0,0,3.52-3.86,22.4,22.4,0,0,1,3.94-4.26,9.66,9.66,0,0,1,2.76-1.48,17.38,17.38,0,0,1,2.89-.66,33.24,33.24,0,0,0,5.25-.91,5.53,5.53,0,0,0,2-1,4.71,4.71,0,0,0,1.22-1.77l2.25.84A7,7,0,0,1,313,197.7a7.24,7.24,0,0,1-2.86,1.55,47.35,47.35,0,0,1-5.63.9,14.83,14.83,0,0,0-2.49.54,7.65,7.65,0,0,0-2.09,1.11,20.66,20.66,0,0,0-3.54,3.81,23.29,23.29,0,0,1-3.94,4.24,35.57,35.57,0,0,1-4.81,3c-3.3,1.75-6.55,3.3-9.3,5.54Z" transform="translate(-48.46 -3.48)" fill="#1c1c1c"/>
    <path d="M277.62,212.3a19.26,19.26,0,0,0,4.86-2.25,14.11,14.11,0,0,0,3.67-3.79,32.78,32.78,0,0,1,3.6-4.57,21.57,21.57,0,0,1,4.77-3.56,19.79,19.79,0,0,1,5.69-1.8c1.9-.36,3.78-.58,5.58-.93a16.21,16.21,0,0,0,5-1.63,6.3,6.3,0,0,0,3-3.69l2,.64-.62,1.48c-.27.46-.58.91-.88,1.36s-.75.79-1.15,1.16-.85.64-1.3.9a18.47,18.47,0,0,1-5.69,1.91c-1.9.37-3.77.6-5.59.95a18.17,18.17,0,0,0-5.07,1.55,19.46,19.46,0,0,0-4.28,3.17,33.18,33.18,0,0,0-3.44,4.28,16.48,16.48,0,0,1-4.24,4.21,21.45,21.45,0,0,1-5.42,2.41Z" transform="translate(-48.46 -3.48)" fill="#1c1c1c"/>
    <path d="M276.71,203.62a17,17,0,0,1,3.34-4.37,10,10,0,0,1,5.15-2.48,14.52,14.52,0,0,1,2.75-.13l1.29,0h.65a2.66,2.66,0,0,0,.52,0c1.64-.19,3.32-.51,5-.86a45.32,45.32,0,0,0,9.57-3.08,21.19,21.19,0,0,0,4.18-2.54,9.74,9.74,0,0,0,2.92-3.56l1.94.83a11.82,11.82,0,0,1-3.46,4.44,22.92,22.92,0,0,1-4.61,2.86A48.1,48.1,0,0,1,295.87,198c-1.72.37-3.43.66-5.22.87a5.72,5.72,0,0,1-.76,0h-.65l-1.29,0a12.55,12.55,0,0,0-2.41.08,7.79,7.79,0,0,0-4,1.91,14.91,14.91,0,0,0-3,3.76Z" transform="translate(-48.46 -3.48)" fill="#1c1c1c"/>
    <path d="M280.45,191.74a38.76,38.76,0,0,0,9.11,1.65,48.13,48.13,0,0,0,9.35-.45l.31,2.14a50.49,50.49,0,0,1-9.77.67,35.66,35.66,0,0,1-9.72-1.74Z" transform="translate(-48.46 -3.48)" fill="#1c1c1c"/>
  </g>
</svg>
